HIERARCHY
ROOT pelvis
{
  OFFSET 0 100 0
  CHANNELS 6 Xposition Yposition Zposition Zrotation Xrotation Yrotation
  JOINT pelvis_right_femur
  {
    OFFSET -10.78128 -3.44521 -0.5502486
    CHANNELS 3 Zrotation Xrotation Yrotation
    JOINT right_femur_tibia
    {
      OFFSET -0.8047443 -44.0398 -0.1307829
      CHANNELS 3 Zrotation Xrotation Yrotation
      JOINT right_tibia_foot
      {
        OFFSET 3.006224 -47.83518 -5
        CHANNELS 3 Zrotation Xrotation Yrotation
        End Site
        {
          OFFSET 0 -5 15
        }
      }
    }
  }
  JOINT pelvis_left_femur
  {
    OFFSET 10.78128 -3.44521 -0.5502486
    CHANNELS 3 Zrotation Xrotation Yrotation
    JOINT left_femur_tibia
    {
      OFFSET 0.8047443 -44.0398 -0.1307829
      CHANNELS 3 Zrotation Xrotation Yrotation
      JOINT left_tibia_foot
      {
        OFFSET -4.370144 -48.10324 -4.275266
        CHANNELS 3 Zrotation Xrotation Yrotation
        End Site
        {
          OFFSET 0 -5 15
        }
      }
    }
  }
  JOINT pelvis_spine1
  {
    OFFSET 0 6.468898 -3.129235
    CHANNELS 3 Zrotation Xrotation Yrotation
    JOINT spine1
    {
      OFFSET 0 23.15396 4.99043
      CHANNELS 3 Zrotation Xrotation Yrotation
      JOINT spine2
      {
        OFFSET 0 20.79997 -5.064912
        CHANNELS 3 Zrotation Xrotation Yrotation
        JOINT neck
        {
          OFFSET 0 14.38658 9.616178
          CHANNELS 3 Zrotation Xrotation Yrotation
          End Site
          {
            OFFSET 0 20 0
          }
        }
      }
      JOINT right_manubrium
      {
        OFFSET -5.722621 16.35077 3.967754
        CHANNELS 3 Zrotation Xrotation Yrotation
        JOINT right_clavicle
        {
          OFFSET -13.16364 1.694482 -4.693211
          CHANNELS 3 Zrotation Xrotation Yrotation
          JOINT right_humerus
          {
            OFFSET -28.5034 -0.3100689 -2.792744
            CHANNELS 3 Zrotation Xrotation Yrotation
            JOINT right_radius
            {
              OFFSET -25.15693 0.02248979 -1.271978
              CHANNELS 3 Zrotation Xrotation Yrotation
              End Site
              {
                OFFSET -15 0 0
              }
            }
          }
        }
      }
      JOINT left_manubrium
      {
        OFFSET 5.722621 16.35077 3.967754
        CHANNELS 3 Zrotation Xrotation Yrotation
        JOINT left_clavicle
        {
          OFFSET 13.16364 1.694482 -4.693211
          CHANNELS 3 Zrotation Xrotation Yrotation
          JOINT left_humerus
          {
            OFFSET 29.39168 -1.063119 -2.237045
            CHANNELS 3 Zrotation Xrotation Yrotation
            JOINT left_radius
            {
              OFFSET 24.59957 -0.9528479 0.9047498
              CHANNELS 3 Zrotation Xrotation Yrotation
              End Site
              {
                OFFSET 15 -0 -0
              }
            }
          }
        }
      }
    }
  }
}
MOTION
Frames: 23
Frame Time: 0.0416666666667
0 103.5113 0 2.396148 0.3993327 0.1092638 2.964374 -14.72889 11.64434 -0 37.35574 -0 -4.228402 -17.50025 -3.307043 -8.73569 8.468367 -21.62419 -0 5.000732 -0 21.83811 -9.161494 29.58592 -1.863657 -1.982229 6.908907 1.26224 11.2252 -6.226463 1.935999 21.58215 5.07848 3.201147 -24.08883 8.124088 5.06698 -20.31067 10.14999 86.04971 37.59503 -17.83948 -0 0 15.08377 -8.436424 8.945671 4.082676 6.168966 -21.07592 -3.034621 -91.68554 23.30302 20.87138 0 0 -18.72512 14.11107 12.57375 -0.2945693
0.3824705 103.4845 1.651037 1.855554 1.287026 0.1642941 4.132892 -17.16031 12.55179 -0 37.78134 -0 -4.406872 -16.69359 -3.489831 -8.507824 8.132476 -21.26252 -0 5.504407 -0 22.67333 -9.535499 30.11839 -1.862658 -1.947291 6.713626 1.422595 11.14546 -6.407446 1.854179 21.41657 5.303561 3.337696 -24.29674 8.193534 5.103334 -20.10807 10.21921 86.21583 37.4421 -18.19785 -0 0 14.85682 -8.442708 9.013842 3.956224 6.349204 -21.23993 -2.922208 -91.48636 22.84373 20.39083 0 0 -18.88141 14.29998 12.47513 -0.8606678
0.66308 103.302 3.499348 1.229371 0.7768479 0.2653656 4.509158 -19.81404 9.37279 -0 35.06381 -0 -5.831083 -14.78187 -2.607094 -7.815663 10.06859 -21.37277 -0 5.972327 -0 17.4121 -14.01948 28.53065 -1.856308 -1.792058 6.448789 1.643083 10.94285 -6.577704 1.735694 21.2485 5.55877 3.449549 -24.56862 8.215596 5.094813 -19.83479 10.34887 86.1702 37.10969 -18.2584 -0 0 14.54407 -8.686572 9.119062 4.225778 6.360037 -21.24261 -2.762649 -91.25374 22.61203 19.94893 0 0 -19.03712 13.89154 12.30496 -0.7469959
0.9018111 103.0893 5.563253 0.6638592 0.9953642 0.3378249 5.217336 -22.52615 8.261727 -0 33.25087 -0 -6.60668 -13.11481 -2.218334 -7.332362 10.75829 -20.94617 -0 6.631431 -0 15.40805 -16.18416 27.61498 -1.849691 -1.737261 6.238963 1.821592 10.79761 -6.744512 1.655009 21.11183 5.765458 3.535243 -24.8045 8.283943 5.112747 -19.62378 10.43331 86.24318 36.8736 -18.50017 -0 0 14.29839 -8.735525 9.195168 4.278022 6.438141 -21.30724 -2.620438 -91.1392 22.42904 19.61881 0 0 -19.15322 13.72634 12.27698 -0.8189408
1.107075 102.7731 7.963624 0.1030353 1.167123 0.4285279 5.830479 -25.55515 6.704937 -0 30.4139 -0 -7.580928 -10.93002 -1.584324 -6.812395 11.53473 -20.15461 -0 7.645524 -0 13.40932 -18.27263 26.17979 -1.851829 -1.701262 6.01101 2.02481 10.60885 -6.910452 1.581507 21.01086 5.947026 3.567109 -25.06621 8.369246 5.144382 -19.41015 10.52345 86.27147 36.58959 -18.72364 -0 0 14.04471 -8.740517 9.267974 4.409239 6.440377 -21.29638 -2.467075 -91.13319 22.50017 19.44199 0 0 -19.19115 13.31557 12.35807 -0.5233705
1.292992 102.377 10.74854 -0.4077215 1.466424 0.5583145 6.404409 -28.37788 5.46066 -0 27.51517 -0 -8.427466 -8.753319 -0.9722435 -6.3514 12.14251 -19.22209 -0 8.951523 -0 11.81888 -19.76149 24.61793 -1.85593 -1.675787 5.79292 2.215527 10.4296 -7.068552 1.514385 20.91654 6.117053 3.596463 -25.31077 8.45326 5.178552 -19.20915 10.60729 86.29781 36.32451 -18.94061 -0 0 13.81598 -8.740933 9.338094 4.526149 6.44719 -21.28552 -2.317461 -91.13765 22.57213 19.28213 0 0 -19.2067 12.92869 12.45012 -0.2458122
1.467648 101.9156 14.00365 -0.8818322 1.764542 0.7534282 6.871728 -30.89334 4.181457 -0 24.32255 -0 -9.266599 -6.44386 -0.2927149 -5.898743 12.75515 -18.10257 -0 10.82984 -0 10.08398 -20.78553 22.60848 -1.86529 -1.644499 5.566882 2.410007 10.23727 -7.218934 1.44799 20.8353 6.276039 3.612075 -25.54973 8.529173 5.214993 -19.00528 10.69507 86.28979 36.04631 -19.11507 -0 0 13.58943 -8.761213 9.408585 4.695259 6.419275 -21.23972 -2.172566 -91.15699 22.71293 19.15716 0 0 -19.19195 12.44046 12.55113 0.1645373
1.638709 101.4488 17.79002 -1.326681 2.042938 1.028346 7.270742 -32.75292 3.071787 -0 21.27319 -0 -10.00193 -4.208655 0.3210995 -5.442951 13.32562 -16.8898 -0 13.45728 -0 7.995475 -21.16845 20.15828 -1.875387 -1.599241 5.34416 2.595539 10.04886 -7.357614 1.38135 20.75785 6.427856 3.630187 -25.76876 8.588248 5.24621 -18.80236 10.78295 86.26153 35.77574 -19.24625 -0 0 13.36748 -8.819443 9.480028 4.89431 6.378662 -21.18308 -2.039853 -91.15291 22.84268 19.01877 0 0 -19.17901 11.93255 12.62034 0.5928259
1.811991 101.0718 22.16061 -1.75528 2.246668 1.377779 7.649642 -33.63144 2.230852 -0 18.64145 -0 -10.58291 -2.176487 0.7613546 -4.957437 13.78909 -15.59305 -0 17.16841 -0 5.384566 -20.69492 17.25231 -1.885351 -1.532238 5.127492 2.77038 9.865723 -7.479971 1.313815 20.68765 6.568418 3.648973 -25.9617 8.623338 5.26915 -18.59963 10.8708 86.20922 35.51441 -19.32226 -0 0 13.14144 -8.92524 9.551428 5.137151 6.315223 -21.111 -1.928521 -91.11613 22.968 18.86406 0 0 -19.18057 11.39058 12.64312 1.061192
1.990905 100.9184 27.12775 -2.177028 2.343405 1.7629 8.086653 -33.1971 1.859516 -0 16.80815 -0 -10.92368 -0.595541 0.8670708 -4.427824 13.94576 -14.26219 -0 22.24424 -0 2.329054 -19.1372 14.12102 -1.892235 -1.439857 4.931065 2.923533 9.700798 -7.578281 1.247321 20.62666 6.691027 3.670382 -26.11404 8.627171 5.278774 -18.40543 10.95411 86.13928 35.27818 -19.33717 -0 0 12.91275 -9.082653 9.61979 5.414962 6.232286 -21.03223 -1.849886 -91.03275 23.06694 18.6846 0 0 -19.21662 10.85188 12.60013 1.533026
2.174256 101.1337 32.64273 -2.576742 2.291536 2.100537 8.589774 -31.22817 2.030699 -0 15.95572 -0 -10.991 0.2702112 0.5335591 -3.862085 13.46538 -12.93525 -0 28.8937 -0 -0.8315367 -16.41185 11.18305 -1.894457 -1.319643 4.772309 3.042495 9.567396 -7.641233 1.185201 20.58226 6.783068 3.690671 -26.20679 8.590602 5.270792 -18.23233 11.02827 86.05115 35.08184 -19.2752 -0 0 12.6875 -9.294924 9.679893 5.726532 6.124794 -20.94823 -1.818249 -90.89769 23.1376 18.4899 0 0 -19.29899 10.33625 12.47772 2.002535
2.355682 101.8207 38.57082 -2.88636 2.036483 2.270484 9.024222 -27.74726 2.581991 -0 15.89635 -0 -10.8521 0.1962814 -0.1929471 -3.311771 11.91552 -11.66941 -0 37.00722 -0 -3.574858 -12.79749 8.944353 -1.890564 -1.171701 4.676403 3.108604 9.484623 -7.653763 1.132584 20.56238 6.828578 3.706035 -26.21383 8.503019 5.239845 -18.10116 11.08774 85.94034 34.9436 -19.11041 -0 0 12.4859 -9.568441 9.725223 6.066704 5.99146 -20.86263 -1.846795 -90.70834 23.16855 18.29729 0 0 -19.43271 9.879375 12.26249 2.448302
2.525464 102.9735 44.69384 -2.967279 1.491634 2.15605 9.132813 -23.07739 3.106059 -0 15.98031 -0 -10.67383 -0.8351221 -1.050378 -2.874049 8.922641 -10.52508 -0 45.97111 -0 -5.440899 -8.990288 7.736014 -1.880657 -0.9982617 4.671876 3.099713 9.472844 -7.598365 1.095367 20.57414 6.810657 3.712608 -26.10426 8.352711 5.180326 -18.039 11.12885 85.78998 34.8763 -18.79841 -0 0 12.34665 -9.920598 9.749661 6.436265 5.83267 -20.77601 -1.942281 -90.46761 23.14244 18.13508 0 0 -19.60453 9.514577 11.94417 2.849694
2.673331 104.45 50.75777 -2.661629 0.5755016 1.717839 8.705681 -17.74762 3.212478 -0 15.42507 -0 -10.59044 -2.503564 -1.669544 -2.640223 4.416751 -9.534884 -0 54.5728 -0 -6.259278 -5.861546 7.56406 -1.867409 -0.8055644 4.784327 2.993871 9.548898 -7.458902 1.079128 20.6194 6.717292 3.709234 -25.84875 8.130761 5.087781 -18.07627 11.1521 85.56719 34.87763 -18.27673 -0 0 12.33301 -10.38319 9.749391 6.842947 5.654963 -20.6848 -2.096608 -90.18747 23.02985 18.04061 0 0 -19.7706 9.267103 11.52034 3.182811
2.788623 106.016 56.56031 -1.924264 -0.6821644 1.048617 7.765943 -12.26605 2.845081 -0 13.89206 -0 -10.56152 -4.233023 -1.81874 -2.581468 -1.24187 -8.633557 -0 61.18845 -0 -6.191019 -4.001852 8.200862 -1.857551 -0.6055423 5.024651 2.778233 9.716723 -7.226393 1.087454 20.69347 6.547083 3.69738 -25.43146 7.837036 4.962379 -18.23864 11.16398 85.22485 34.91896 -17.47743 -0 0 12.52686 -10.99477 9.722901 7.302293 5.468872 -20.57553 -2.283378 -89.89709 22.80363 18.06102 0 0 -19.84745 9.131137 11.00597 3.439839
2.859709 107.4227 62.02342 -0.9283828 -2.050319 0.3314545 6.604019 -6.96674 2.293327 -0 11.69708 -0 -10.4247 -5.586744 -1.549357 -2.459322 -7.420255 -7.646806 -0 64.15911 -0 -5.580685 -3.440686 9.389376 -1.860389 -0.4153401 5.379516 2.458353 9.960236 -6.904938 1.120548 20.78685 6.312699 3.67983 -24.86398 7.486354 4.811294 -18.53572 11.17446 84.72111 34.94786 -16.36093 -0 0 13.00149 -11.77649 9.669295 7.827103 5.284874 -20.42491 -2.464804 -89.64409 22.46059 18.24496 0 0 -19.73001 9.06137 10.43907 3.641041
2.882759 108.4477 67.19477 -0.01209379 -3.185911 -0.2869174 5.6236 -2.015644 1.862963 -0 9.422781 -0 -10.08033 -6.668353 -1.101986 -1.907913 -13.47734 -6.416231 -0 62.26271 -0 -4.765238 -3.751113 10.92599 -1.8825 -0.2518319 5.811748 2.061327 10.24495 -6.514359 1.174527 20.88893 6.039218 3.659365 -24.19112 7.108441 4.647202 -18.95122 11.19138 84.05033 34.91066 -14.95518 -0 0 13.77801 -12.70682 9.588336 8.412315 5.110007 -20.21106 -2.607456 -89.47856 22.03312 18.61934 0 0 -19.34234 8.992613 9.873171 3.826196
2.882526 108.9108 72.19202 0.5041194 -3.860433 -0.7736061 5.118426 2.499634 1.63336 -0 7.532232 -0 -9.550384 -8.044055 -0.7081736 -0.6953 -18.84671 -4.957565 -0 55.29304 -0 -3.969465 -4.351976 12.59922 -1.922982 -0.1242182 6.27174 1.628905 10.53025 -6.087434 1.241859 20.98987 5.757679 3.638987 -23.48005 6.738798 4.483691 -19.44246 11.21669 83.25923 34.77944 -13.36593 -0 0 14.79859 -13.72001 9.48344 9.029269 4.948863 -19.93024 -2.695178 -89.4265 21.57361 19.16352 0 0 -18.68695 8.876907 9.357142 4.026258
2.921417 108.7199 77.15184 0.4857041 -4.079448 -1.178838 5.124048 6.480441 1.533207 -0 6.369114 -0 -8.896488 -10.17702 -0.4741477 1.047524 -23.02835 -3.479951 -0 44.51852 -0 -3.290246 -4.754927 14.1495 -1.974479 -0.03080262 6.711924 1.204931 10.78395 -5.662193 1.312906 21.08083 5.496739 3.622042 -22.79741 6.405836 4.331323 -19.95268 11.24844 82.42986 34.55811 -11.74223 -0 0 15.94408 -14.73298 9.363242 9.637796 4.80527 -19.60236 -2.730855 -89.47648 21.12771 19.80836 0 0 -17.84692 8.700435 8.91715 4.247962
3.075349 107.9284 82.21446 0.03478099 -4.002125 -1.578458 5.415164 9.803702 1.49625 -0 6.237714 -0 -8.175302 -12.93973 -0.3695357 2.839601 -25.70718 -2.277608 -0 32.46659 -0 -2.734846 -4.716698 15.35039 -2.028353 0.03808924 7.09723 0.8242096 10.98983 -5.272244 1.37819 21.15456 5.276409 3.611084 -22.18917 6.123331 4.195869 -20.42956 11.28533 81.64376 34.26479 -10.22125 -0 0 17.08413 -15.67921 9.238714 10.20573 4.681553 -19.25993 -2.729004 -89.59049 20.72037 20.46554 0 0 -16.94107 8.469884 8.552669 4.484746
3.39497 106.7352 87.52388 -0.5798203 -3.800295 -2.041907 5.628056 12.41708 1.48513 -0 7.314912 -0 -7.464996 -15.62323 -0.2695305 4.095744 -26.91542 -1.608502 -0 21.92201 -0 -2.294593 -4.309138 16.13455 -2.078663 0.09441251 7.408739 0.5075019 11.14567 -4.940032 1.430383 21.20622 5.106437 3.606604 -21.6746 5.891787 4.078354 -20.83832 11.32884 80.95669 33.91125 -8.892245 -0 0 18.12099 -16.52545 9.118889 10.71949 4.577113 -18.93211 -2.706472 -89.7264 20.35907 21.06242 0 0 -16.07324 8.191194 8.245338 4.735345
3.884101 105.4105 93.21225 -1.046753 -3.590879 -2.606262 5.422857 14.44618 1.458293 -0 9.547499 -0 -6.861452 -17.30523 -0.03616329 4.403756 -27.02552 -1.631384 -0 14.78076 -0 -2.008351 -3.856217 16.62918 -2.122518 0.147791 7.640242 0.2636923 11.25693 -4.677118 1.465114 21.23342 4.989015 3.607138 -21.25453 5.705478 3.976657 -21.16225 11.38179 80.39837 33.49811 -7.799494 -0 0 18.99912 -17.26323 9.009039 11.1784 4.489654 -18.63838 -2.677144 -89.85233 20.04354 21.5546 0 0 -15.3131 7.86423 7.972147 5.006806
4.505103 104.2028 99.36613 -1.122984 -3.459035 -3.2485 4.600381 16.17005 1.402162 -0 12.74711 -0 -6.413942 -17.20858 0.3849605 3.642322 -26.51989 -2.411788 -0 11.51753 -0 -1.949095 -3.738143 17.05957 -2.158297 0.2035717 7.790374 0.09622386 11.33136 -4.490453 1.480479 21.23513 4.923158 3.61077 -20.92564 5.559544 3.888027 -21.39368 11.44539 79.98922 33.02563 -6.971963 -0 0 19.68457 -17.88607 8.911631 11.57922 4.418976 -18.39409 -2.651908 -89.94571 19.77265 21.91279 0 0 -14.7106 7.494566 7.715448 5.299834
